<svg version="1.0" xmlns="http://www.w3.org/2000/svg"
 width="116.000000pt" height="130.000000pt" viewBox="0 0 116.000000 130.000000"
 preserveAspectRatio="xMidYMid meet">
<metadata>
Created by potrace 1.10, written by Peter Selinger 2001-2011
</metadata>
<g transform="translate(0.000000,130.000000) scale(0.100000,-0.100000)"
fill="#000000" stroke="none">
<path d="M599 1041 c-16 -16 -29 -35 -29 -41 0 -6 15 5 34 24 18 20 43 36 54
36 31 0 74 -42 86 -85 6 -21 23 -47 39 -59 27 -20 28 -20 62 -2 32 18 85 66
72 66 -3 0 -18 -11 -33 -25 -32 -30 -71 -42 -92 -29 -8 5 -23 32 -33 60 -32
84 -105 109 -160 55z"/>
<path d="M928 1043 c-10 -3 -18 -11 -18 -19 0 -11 6 -13 20 -9 22 7 26 -5 8
-23 -9 -9 -9 -12 0 -12 7 0 15 -1 19 -2 3 -2 7 6 9 18 4 27 -16 52 -38 47z"/>
<path d="M504 970 c-27 -11 -40 -80 -14 -80 12 -1 11 -4 -4 -15 -14 -11 -23
-12 -33 -4 -26 22 -143 -59 -143 -98 0 -7 -4 -13 -8 -13 -12 0 -34 -49 -27
-60 3 -5 1 -11 -5 -15 -5 -3 -10 -20 -10 -37 0 -22 4 -29 14 -25 10 4 13 1 9
-9 -3 -7 -8 -14 -12 -14 -4 0 -6 -14 -3 -30 2 -16 10 -30 17 -30 10 0 11 7 5
30 -5 18 -5 30 1 30 15 0 22 -47 10 -68 -12 -23 4 -72 23 -72 7 0 20 -14 30
-31 18 -31 51 -37 51 -9 0 8 9 17 20 20 15 5 20 15 21 40 0 32 3 35 29 35 23
0 30 -6 36 -27 8 -31 4 -38 -27 -38 -21 0 -22 -3 -14 -31 9 -30 9 -30 -13 -16
-12 7 -28 12 -34 10 -23 -8 -14 -31 15 -39 29 -8 29 -8 52 -1 8 2 12 2 7 0 -4
-3 -5 -9 -1 -14 3 -5 -7 -9 -23 -10 -15 0 -37 -4 -48 -8 -31 -13 198 -24 314
-16 56 4 101 11 101 16 0 5 -3 9 -7 9 -5 1 -25 3 -46 6 -21 3 -43 1 -50 -4
-13 -11 -63 -17 -112 -13 l-30 2 39 19 c22 11 47 20 56 20 9 0 26 9 38 20 12
11 25 20 30 20 13 0 44 49 38 59 -3 5 4 11 15 14 15 4 20 11 15 22 -4 10 -2
14 6 9 8 -5 9 1 4 22 -4 16 -8 30 -9 31 -1 1 -26 4 -56 8 -29 3 -56 6 -60 7
-28 3 -40 -6 -47 -34 -3 -18 -17 -46 -30 -61 -32 -38 -30 -56 7 -69 l32 -11
-37 -18 c-47 -23 -62 -25 -108 -16 -32 7 -38 12 -38 32 0 28 14 31 67 16 20
-6 35 -6 38 0 4 5 -5 9 -19 9 -32 0 -39 12 -26 45 9 23 14 26 39 20 17 -3 32
-2 36 4 4 7 -4 11 -19 11 -14 0 -26 5 -26 10 0 6 4 10 9 10 5 0 11 12 13 28 3
23 7 27 33 25 17 -1 22 1 12 4 -11 3 -16 11 -13 20 3 8 6 26 6 39 0 19 5 24
27 24 14 0 23 3 20 6 -3 4 -1 16 4 27 8 14 8 22 -1 27 -8 5 -7 9 4 13 9 4 16
2 16 -3 0 -5 7 -7 16 -3 15 6 15 7 -1 19 -9 7 -24 10 -33 7 -13 -4 -14 -2 -4
4 10 8 10 12 -3 23 -22 18 -19 25 15 26 16 1 29 -2 28 -5 -1 -18 16 -50 24
-45 5 3 7 13 4 23 -5 12 -2 11 9 -4 14 -17 14 -20 0 -28 -20 -11 -19 -25 3
-23 10 0 16 -6 16 -16 -1 -10 2 -18 7 -18 5 0 9 -6 9 -14 0 -8 6 -17 13 -20 6
-3 -16 -3 -51 1 -56 5 -62 4 -56 -12 5 -11 9 -13 14 -5 4 7 17 9 33 4 21 -5
27 -12 27 -33 1 -20 9 -30 35 -42 33 -15 34 -15 40 8 3 14 -2 34 -12 51 -17
25 -17 26 0 13 21 -17 23 -2 3 42 -7 18 -18 44 -24 60 -7 15 -16 27 -22 27 -5
0 -10 6 -10 13 0 11 -30 33 -85 63 -14 8 -20 22 -20 48 0 23 -6 40 -15 45 -23
13 -142 20 -166 11z m120 -75 c8 -8 21 -15 28 -15 20 -1 51 -27 40 -34 -12 -7
-44 3 -54 18 -9 13 -48 18 -48 6 0 -6 -13 -10 -30 -10 -22 0 -30 5 -30 18 0
10 3 22 7 25 12 13 71 7 87 -8z m-85 -76 c-6 -12 -21 -19 -40 -19 -17 0 -28 3
-26 8 2 4 6 14 10 23 4 11 14 15 36 11 26 -4 29 -7 20 -23z m-94 1 c-10 -11
-26 -20 -35 -20 -9 0 -21 -5 -28 -12 -22 -22 -13 5 10 29 12 13 33 23 46 23
24 0 25 -1 7 -20z m195 -6 c0 -22 -4 -25 -27 -22 -20 2 -29 9 -31 26 -3 19 1
22 27 22 27 0 31 -4 31 -26z m-67 -35 c3 -12 4 -34 1 -49 -5 -23 -10 -26 -35
-22 -25 4 -29 9 -29 34 0 21 6 31 20 35 11 3 20 9 20 14 0 18 18 8 23 -12z
m-171 -24 c-2 -14 -1 -25 2 -25 4 0 11 11 16 25 7 18 17 25 35 25 22 0 25 -4
22 -35 l-2 -35 -69 0 c-68 0 -68 0 -62 25 7 27 -11 36 -20 10 -4 -8 -10 -12
-15 -9 -17 10 20 35 45 30 14 -3 28 0 31 5 12 18 22 9 17 -16z m266 -26 c3
-34 1 -36 -25 -34 -15 1 -30 3 -33 3 -4 1 -4 18 -2 38 4 31 7 35 31 32 22 -3
26 -8 29 -39z m-310 -54 c-3 -14 -1 -28 3 -31 5 -3 10 2 10 10 1 9 2 22 3 29
0 6 14 12 31 12 24 0 30 -4 30 -22 0 -11 3 -25 8 -29 4 -4 7 -2 7 5 0 7 5 9
11 5 8 -5 8 -1 0 13 -13 26 -9 30 32 25 31 -4 34 -7 32 -33 -3 -33 -34 -63
-49 -48 -6 5 -48 9 -94 9 l-84 0 23 20 c22 17 22 19 5 20 -18 0 -18 1 -1 20
25 27 38 25 33 -5z m257 -5 c0 -9 -8 -14 -20 -13 -18 2 -18 1 3 -9 26 -13 28
-26 7 -34 -8 -4 -15 -12 -15 -20 0 -8 -7 -14 -15 -14 -8 0 -15 -8 -15 -19 0
-10 -7 -32 -15 -47 -14 -27 -15 -27 -15 -6 0 16 -6 22 -21 22 -17 0 -20 4 -15
23 3 12 6 28 6 36 0 10 10 12 40 8 31 -4 40 -2 40 10 0 10 -6 14 -20 10 -25
-6 -26 6 -3 29 13 13 14 19 5 22 -25 8 -11 23 21 20 20 -2 32 -8 32 -18z
m-243 -78 c-1 -7 2 -22 8 -32 10 -18 7 -20 -20 -20 -26 0 -30 3 -30 28 0 16 3
32 7 36 11 11 38 1 35 -12z m82 6 c17 -54 16 -68 -3 -68 -36 0 -51 12 -51 40
0 16 6 31 13 33 22 9 38 7 41 -5z m291 -57 c1 -29 -1 -31 -37 -31 l-37 0 15
28 c7 15 14 32 14 39 0 9 7 10 23 4 16 -6 22 -16 22 -40z m52 -4 c-2 -22 -8
-33 -21 -35 -15 -3 -17 0 -10 20 4 12 7 31 6 40 0 11 5 15 13 11 9 -3 14 -17
12 -36z m-387 -31 c0 -8 7 -22 16 -30 14 -15 13 -16 -15 -16 -20 0 -34 7 -41
19 -16 31 -12 41 15 41 15 0 25 -6 25 -14z m294 -48 c-10 -20 -20 -28 -30 -24
-9 3 -23 6 -31 6 -14 0 -14 2 0 18 10 10 17 23 17 29 0 5 13 8 30 5 29 -4 29
-4 14 -34z m56 -3 c-30 -32 -41 -32 -27 0 7 14 21 25 31 25 18 0 18 -2 -4 -25z"/>
<path d="M281 371 c-9 -6 2 -12 38 -20 62 -13 100 -13 54 0 -18 5 -33 14 -33
19 0 12 -40 13 -59 1z"/>
</g>
</svg>
