<?xml version="1.0" standalone="no"?>
<!DOCTYPE svg PUBLIC "-//W3C//DTD SVG 20010904//EN"
 "http://www.w3.org/TR/2001/REC-SVG-20010904/DTD/svg10.dtd">
<svg version="1.0" xmlns="http://www.w3.org/2000/svg"
 width="200.000000pt" height="200.000000pt" viewBox="0 0 200.000000 200.000000"
 preserveAspectRatio="xMidYMid meet">
<metadata>
Created by potrace 1.10, written by Peter Selinger 2001-2011
</metadata>
<g transform="translate(0.000000,200.000000) scale(0.100000,-0.100000)"
fill="#000000" stroke="none">
<path d="M855 1391 c-76 -19 -186 -91 -224 -147 -55 -79 -77 -215 -45 -279 8
-16 12 -22 9 -12 -10 37 -17 97 -12 97 4 0 11 -19 17 -42 16 -62 41 -118 51
-112 5 3 6 -1 4 -9 -3 -7 3 -22 15 -32 22 -20 27 -40 8 -29 -7 4 0 -7 16 -24
17 -18 35 -32 40 -32 6 1 -2 12 -19 25 -16 14 -26 25 -21 25 14 0 65 -47 58
-55 -4 -4 -2 -5 3 -4 6 2 37 -10 70 -26 54 -26 70 -29 156 -30 90 0 100 2 170
37 140 70 209 172 209 310 -1 48 -6 82 -16 98 -11 17 -13 19 -9 5 4 -11 9 -36
11 -55 5 -40 -3 -27 -31 53 -9 26 -21 45 -26 42 -5 -4 -6 1 -3 9 8 22 -70 101
-140 143 -34 19 -66 36 -73 37 -7 1 -16 5 -19 9 -9 9 -160 7 -199 -2z m210
-36 c32 -9 79 -30 104 -48 52 -38 111 -118 111 -153 0 -12 9 -29 21 -38 17
-12 21 -24 20 -69 -2 -210 -220 -356 -450 -300 -94 22 -202 119 -216 193 -2
11 -9 28 -15 37 -9 15 -10 12 -6 -17 4 -27 3 -31 -5 -18 -5 10 -12 46 -16 81
-21 229 206 396 452 332z"/>
<path d="M879 1262 c-57 -23 -135 -77 -149 -102 -19 -35 -11 -60 25 -81 19
-12 35 -26 35 -31 0 -6 -16 -28 -35 -49 -78 -86 -19 -155 89 -104 58 28 123
92 108 107 -9 9 -20 5 -45 -20 -40 -39 -87 -51 -110 -27 -23 23 -22 30 18 74
19 21 35 45 35 54 0 8 -16 27 -35 41 -19 15 -35 33 -35 41 0 20 81 65 115 65
l29 0 -28 -29 c-16 -16 -25 -34 -21 -40 4 -8 17 -1 34 18 56 60 111 49 196
-37 58 -58 90 -120 81 -156 l-7 -27 -30 25 c-20 17 -43 26 -65 26 l-34 0 0 68
c0 69 -12 105 -28 87 -6 -6 -6 -41 -1 -87 9 -76 8 -76 -20 -107 -39 -41 -48
-84 -26 -118 15 -22 22 -25 61 -20 24 2 62 16 84 31 21 14 46 23 54 20 19 -7
73 21 85 45 13 23 3 35 -15 20 -8 -6 -21 -9 -29 -5 -14 5 -14 9 0 35 32 63 8
148 -61 216 -75 73 -190 101 -275 67z m161 -322 c0 -16 5 -30 11 -30 7 0 9 10
7 25 -6 31 -5 31 38 -2 26 -19 32 -28 22 -34 -41 -27 -116 9 -104 49 10 32 26
27 26 -8z"/>
<path d="M1214 1311 c17 -17 34 -31 39 -31 14 0 -23 39 -48 52 -14 8 -12 2 9
-21z"/>
</g>
</svg>
